<svg xmlns="http://www.w3.org/2000/svg" version="1.1" xmlns:xlink="http://www.w3.org/1999/xlink" xmlns:svgjs="http://svgjs.dev/svgjs" width="1440" height="560" preserveAspectRatio="none" viewBox="0 0 1440 560"><g mask="url(&quot;#SvgjsMask1008&quot;)" fill="none"><rect width="1440" height="560" x="0" y="0" fill="#0e2a47"></rect><path d="M777.7-98.63C631.71-23.18 704.15 454.91 429.85 459.14 155.54 463.37-83.58 243.29-265.86 240.74" stroke="rgba(51,121,194,0.58)" stroke-width="2"></path><path d="M1109.92-43.48C916.32-33.94 787.89 294.88 416.77 303.92 45.64 312.96-97.06 487.14-276.39 488.72" stroke="rgba(51,121,194,0.58)" stroke-width="2"></path><path d="M1392.92-0.23C1185.85 17.27 1048.33 437.65 687.44 439.39 326.54 441.13 161.49 305.59-18.05 304.99" stroke="rgba(51,121,194,0.58)" stroke-width="2"></path><path d="M1093.22-57.23C880.86-21.64 777.65 495.33 435.63 499.03 93.62 502.73-51.57 321.42-221.95 319.83" stroke="rgba(51,121,194,0.58)" stroke-width="2"></path><path d="M869.76-95.19C714.73-66.68 637.51 321.91 397.55 322.6 157.59 323.29 58.3 83.46-74.66 76.2" stroke="rgba(51,121,194,0.58)" stroke-width="2"></path></g><defs><mask id="SvgjsMask1008"><rect width="1440" height="560" fill="#ffffff"></rect></mask></defs></svg>